<?xml version="1.0" encoding="utf-8"?>
<!-- Generator: Adobe Illustrator 15.0.0, SVG Export Plug-In . SVG Version: 6.00 Build 0)  -->
<!DOCTYPE svg PUBLIC "-//W3C//DTD SVG 1.1 Tiny//EN" "http://www.w3.org/Graphics/SVG/1.1/DTD/svg11-tiny.dtd">
<svg version="1.1" baseProfile="tiny" xmlns="http://www.w3.org/2000/svg" xmlns:xlink="http://www.w3.org/1999/xlink" x="0px"
	 y="0px" width="566.929px" height="566.93px" viewBox="0 0 566.929 566.93" xml:space="preserve">
<g id="图层_2" display="none">
	<rect x="55.133" y="225.298" display="inline" fill-rule="evenodd" fill="#CC3366" width="559.333" height="506"/>
</g>
<g id="图层_1">
	<path fill-rule="evenodd" fill="#FFFFFF" d="M-258.609,610.868C-256.509,609.368-265.764,615.979-258.609,610.868L-258.609,610.868
		z"/>
	<path fill-rule="evenodd" fill="#FFFFFF" d="M325.092,52.981c83.217-6.507,140.765,34.596,178,81c5.781,7.205,14.351,15.358,14,23
		c-0.552,12.028-15.325,18.433-25,17c-7.064-1.046-10.401-8.521-16-16c-12.405-16.57-31.243-34.345-48-45
		c-25.336-16.11-56.466-28.241-96-28c-28.87,0.176-50.85,9.11-71,19c-8.101,3.976-14.976,7.917-21,7
		c-9.198-1.401-17.344-7.033-15-21c2.18-12.987,31.317-20.909,43-25C288.965,57.672,306.137,54.464,325.092,52.981z"/>
	<path fill-rule="evenodd" fill="#FFFFFF" d="M317.092,118.981c52.455-4.307,91.479,16.353,119,45c6.298,6.555,18.391,19.837,18,28
		c-0.367,7.692-9.695,16.739-20,16c-9.392-0.673-14.6-12.751-20-19c-20.323-23.517-51.1-44.463-99-40
		c-7.329,0.683-16.333,3.656-25,7c-13.235,5.106-24.417,15.222-34,3C234.708,131.711,297.601,120.582,317.092,118.981z"/>
	<path fill-rule="evenodd" fill="#FFFFFF" d="M316.092,175.981c34.647-3.89,61.248,10.868,79,31c4.813,5.459,10.468,14.209,10,20
		c-0.504,6.25-7.435,14.111-17,13c-6.953-0.808-8.193-6.649-13-13c-11.221-14.825-34.353-30.856-65-24
		c-7.312,1.636-19.131,10.842-26,10c-5.997-0.735-12.075-8.752-12-14C272.325,182.862,302.854,177.468,316.092,175.981z"/>
	<g>
		<path fill="#FFFFFF" d="M368.092,305.981c-3.018-6.187-8.448-10.936-11-17c-2.822-6.709-1.068-14.405-6-19
			c14.214-23.093-12.222-46.563-34-39c-4.071,1.414-6.111,5.714-11,6c-2.836-1.53-6.581-2.747-10-1
			c3.401,17.675,20.764,26.468,29,36c5.88-1.79,11.451,6.69,18,6c4.828-0.509,4.294-6.443,9-5c0.319,2.348,1.58,3.754,1,7
			c-6.321,3.267-12.559-3.794-17-2c5.457,2.707,2.68,13.612,0,17c1.185,1.873,8.129,3.127,6,5c-9.041-2.633-17.891-10.768-25-12
			c5.411,3.922,11.126,7.541,16,12c-3.474,3.865,2.495,6.795,1,12c-4.935,7.405-13.578,16.414-15,24c5.274-7.73,11.232-20.094,18-23
			c0.048,7.688,3.469,19.299,4,31c0.343,7.55,0.139,14.948,0,21c-2.342-0.325-0.971-4.362-3-5c-0.111,2.555-3.349,1.984-6,2
			c-5.165-9.835-9.134-20.866-22-23c-1.576,0.091-0.783,2.551-3,2c-4.433-1.9-9.733-2.934-13-6c-5.187,2.153-5.925-1.624-12-1
			c2.613,6.054,13.908,3.425,17,9c-4.885-3.115-12.834-3.166-20-4c-6.08-8.214-21.081-3.873-26,3c-5.444-0.777-7.798,1.536-11,3
			c-2.638-3.028-9.61-1.724-15-2c-1.301,2.483,2.934,4.15,0,5c-7.201-1.43-7.228-9.192-10-14c-2.473-4.288-7.397-6.622-9-11
			c-10.86-0.256-15.669-10.372-28-6c-11.575-13.097-20.207-27.361-26-44c1.435-3.593,5.304-9.993,3-14
			c-2.789,4.037-6.299,8.839-9,12c-11.6,13.578-23.979,46.311-26,68c-1.841,19.765,2.481,34.752,7,48
			c8.152,23.9,25.136,44.256,38,61c-0.891,2.819-6.345,6.264-4,9c0.019-4.108,4.981,1.699,5,4c-3.529,3.516-12.359,6.308-15,0
			c-1.232,2.828-1.232,6.172,0,9c-6.425,1.908-12.083,4.583-19,6c-1.727-0.606,0.077-4.743-2-5c-2.864,1.553,2.083,4.666-1,6
			c-7.884-4.875-17.78,11.714-27,2c-2.111,0.89-1.737,4.264-5,4c-16.294,1.291-31.731-3.597-42-5c41.784,16.877,93.47-2.022,122-20
			c10.04,8.702,21.279,12.894,33,18c4.114,1.792,8.239,4.739,12,6c11.615,3.893,29.169,3.757,40,3c30.756-2.148,55.401-19.344,75-37
			c11.285-10.167,16.879-15.609,24-27c5.089-8.139,6.668-11.158,10-20c1.298-3.443,2.818-6.717,4-10
			C387.662,361.623,378.357,327.022,368.092,305.981z M147.092,307.981C150.124,304.284,150.461,311.019,147.092,307.981
			L147.092,307.981z M147.092,301.981C144.625,299.35,149.977,296.187,147.092,301.981L147.092,301.981z M148.092,317.981
			c1.792,3.874,1.97,9.363,5,12c-2.387,10.418,3.403,18.221-3,23C144.529,346.272,147.434,327.823,148.092,317.981z
			 M200.092,420.981c0.22-3.78,3.144-4.856,4-8c-2.204-2.138-3.313,5.305-7,5c-13.099-3.9-19.809-14.19-27-24
			c0.659-3.341,3.109-4.891,4-8c-1.414-1.022-4.326,4.965-6,7c-8.835-9.498-14.273-22.394-19-36c5.173,2.107,7.623,7.113,11,11
			c22.009,25.332,47.1,47.51,77,65C225.617,432.118,210.225,426.52,200.092,420.981z M246.092,429.981c-2.88,0.12-1.735,4.265-5,4
			c7.931-10.402,14.957-21.709,24-31c-9.161,5.177-16.269,21.062-26,29c-13.192-4.809-21.734-14.266-33-21
			c1.071-2.263,2.27-4.397,4-6c-1.136-2.342-3.344,2.561-4,4c-22.635-13.698-38.449-34.218-55-54c0.957-2.043,2.043-3.957,3-6
			c8.821,5.846,8.035,21.299,17,27c5.495-3.172,13.318-4.016,18-8c2.74,2.26,6.371,3.629,10,5c4.75-3.41,12.868-5.24,18,0
			c-2.211-3.188,3.936-4.934,4-9c3.247,0.58,4.652-0.681,7-1c0.306-4.973-0.158-9.175-1-13c4.307,1.307,3.163-2.838,5-4
			c4.148-1.468,6.895,6.186,11,8c3.204-0.463,3.526-3.808,7-4c2.245,2.756,3.353,6.647,6,9c8.849-1.888-4.294-11.012,5-14
			c8.36,3.307,14.768,8.565,15,20c-2.111,0.889-2.956,3.045-6,3c4.659,2.503-0.454,5.799-3,7c-4.448-0.552-5.687-4.313-11-4
			c1.302,6.031,8.085,6.582,12,10c-2.692,13.368,11.072,17.49,6,27c1.724,1.943,4.102,3.231,3,8c-1.333,0-2.667,0-4,0
			c1.25,3.817-0.442,7.33-2,10c2.667,0,5.333,0,8,0C272.787,428.456,255.697,431.131,246.092,429.981z"/>
	</g>
</g>
</svg>
